<svg id="svg" version="1.1" xmlns="http://www.w3.org/2000/svg" xmlns:xlink="http://www.w3.org/1999/xlink" width="400" height="98.16079873883342" viewBox="0, 0, 400,98.16079873883342"><g id="svgg"><path id="path1" d="M159.500 28.333 C 159.637 28.422,159.862 28.495,160.000 28.495 C 160.222 28.495,160.222 28.477,160.000 28.333 C 159.862 28.244,159.637 28.172,159.500 28.172 C 159.278 28.172,159.278 28.190,159.500 28.333 M215.776 28.958 C 215.733 29.027,215.878 29.094,216.098 29.107 C 216.318 29.120,216.456 29.064,216.406 28.982 C 216.294 28.801,215.882 28.786,215.776 28.958 M188.046 29.102 C 188.167 29.223,190.348 29.208,190.471 29.085 C 190.517 29.038,189.968 29.000,189.250 29.000 C 188.532 29.000,187.990 29.046,188.046 29.102 M203.683 29.072 C 203.812 29.201,206.304 29.253,206.224 29.125 C 206.182 29.056,205.576 29.000,204.879 29.000 C 204.182 29.000,203.643 29.032,203.683 29.072 " stroke="none" fill="#308cc4" fill-rule="evenodd"></path><path id="path2" d="M159.500 28.333 C 159.637 28.422,159.862 28.495,160.000 28.495 C 160.222 28.495,160.222 28.477,160.000 28.333 C 159.862 28.244,159.637 28.172,159.500 28.172 C 159.278 28.172,159.278 28.190,159.500 28.333 M215.776 28.958 C 215.733 29.027,215.878 29.094,216.098 29.107 C 216.318 29.120,216.456 29.064,216.406 28.982 C 216.294 28.801,215.882 28.786,215.776 28.958 M188.046 29.102 C 188.167 29.223,190.348 29.208,190.471 29.085 C 190.517 29.038,189.968 29.000,189.250 29.000 C 188.532 29.000,187.990 29.046,188.046 29.102 M203.683 29.072 C 203.812 29.201,206.304 29.253,206.224 29.125 C 206.182 29.056,205.576 29.000,204.879 29.000 C 204.182 29.000,203.643 29.032,203.683 29.072 " stroke="none" fill="#308cc4" fill-rule="evenodd"></path><path id="path3" d="M159.500 28.333 C 159.637 28.422,159.862 28.495,160.000 28.495 C 160.222 28.495,160.222 28.477,160.000 28.333 C 159.862 28.244,159.637 28.172,159.500 28.172 C 159.278 28.172,159.278 28.190,159.500 28.333 M215.776 28.958 C 215.733 29.027,215.878 29.094,216.098 29.107 C 216.318 29.120,216.456 29.064,216.406 28.982 C 216.294 28.801,215.882 28.786,215.776 28.958 M188.046 29.102 C 188.167 29.223,190.348 29.208,190.471 29.085 C 190.517 29.038,189.968 29.000,189.250 29.000 C 188.532 29.000,187.990 29.046,188.046 29.102 M203.683 29.072 C 203.812 29.201,206.304 29.253,206.224 29.125 C 206.182 29.056,205.576 29.000,204.879 29.000 C 204.182 29.000,203.643 29.032,203.683 29.072 " stroke="none" fill="#308cc4" fill-rule="evenodd"></path><path id="path4" d="M159.500 28.333 C 159.637 28.422,159.862 28.495,160.000 28.495 C 160.222 28.495,160.222 28.477,160.000 28.333 C 159.862 28.244,159.637 28.172,159.500 28.172 C 159.278 28.172,159.278 28.190,159.500 28.333 M215.776 28.958 C 215.733 29.027,215.878 29.094,216.098 29.107 C 216.318 29.120,216.456 29.064,216.406 28.982 C 216.294 28.801,215.882 28.786,215.776 28.958 M188.046 29.102 C 188.167 29.223,190.348 29.208,190.471 29.085 C 190.517 29.038,189.968 29.000,189.250 29.000 C 188.532 29.000,187.990 29.046,188.046 29.102 M203.683 29.072 C 203.812 29.201,206.304 29.253,206.224 29.125 C 206.182 29.056,205.576 29.000,204.879 29.000 C 204.182 29.000,203.643 29.032,203.683 29.072 " stroke="none" fill="#308cc4" fill-rule="evenodd"></path><path id="path0" d="M399.083 0.207 C 398.808 0.302,398.471 0.417,398.333 0.465 C 398.082 0.551,397.748 0.642,397.392 0.722 C 397.286 0.745,397.092 0.854,396.960 0.964 C 396.828 1.074,396.680 1.125,396.633 1.077 C 396.585 1.030,396.330 1.080,396.065 1.190 C 395.800 1.299,395.527 1.404,395.458 1.424 C 395.390 1.443,395.277 1.476,395.208 1.498 C 395.140 1.520,395.008 1.549,394.917 1.562 C 394.825 1.574,394.581 1.681,394.375 1.798 C 394.169 1.916,394.000 1.963,394.000 1.903 C 394.000 1.844,393.803 1.924,393.563 2.081 C 393.322 2.239,393.172 2.292,393.230 2.199 C 393.292 2.099,393.201 2.066,393.002 2.118 C 392.820 2.166,392.716 2.279,392.773 2.370 C 392.836 2.472,392.739 2.492,392.521 2.423 C 392.323 2.361,392.167 2.383,392.167 2.475 C 392.167 2.628,390.963 2.996,390.292 3.048 C 390.131 3.061,390.000 3.121,390.000 3.181 C 390.000 3.241,389.644 3.386,389.208 3.504 C 388.773 3.622,388.342 3.760,388.250 3.812 C 388.158 3.864,387.915 3.885,387.708 3.858 C 387.502 3.831,387.333 3.886,387.333 3.981 C 387.333 4.118,386.527 4.372,385.972 4.409 C 385.911 4.413,385.810 4.468,385.748 4.530 C 385.685 4.593,385.529 4.603,385.400 4.554 C 385.272 4.505,385.167 4.556,385.167 4.668 C 385.167 4.790,385.033 4.837,384.833 4.785 C 384.650 4.737,384.542 4.766,384.593 4.849 C 384.644 4.932,384.532 5.009,384.343 5.021 C 383.949 5.045,384.031 5.028,382.833 5.326 C 382.329 5.451,381.911 5.523,381.905 5.485 C 381.898 5.447,381.762 5.548,381.601 5.708 C 381.441 5.869,381.099 6.000,380.842 6.000 C 380.585 6.000,380.065 6.110,379.685 6.243 C 379.306 6.377,378.978 6.485,378.956 6.482 C 378.934 6.479,378.706 6.557,378.447 6.655 C 378.189 6.753,377.801 6.833,377.584 6.833 C 377.368 6.833,377.073 6.951,376.929 7.095 C 376.761 7.263,376.667 7.286,376.667 7.158 C 376.667 7.011,376.609 7.007,376.443 7.145 C 376.320 7.247,376.172 7.283,376.114 7.225 C 376.056 7.167,375.909 7.202,375.787 7.302 C 375.666 7.403,375.250 7.536,374.863 7.598 C 374.476 7.660,374.118 7.777,374.068 7.858 C 374.018 7.939,373.912 7.965,373.833 7.917 C 373.754 7.868,373.647 7.897,373.595 7.982 C 373.542 8.066,373.338 8.093,373.140 8.041 C 372.894 7.977,372.819 8.008,372.900 8.140 C 372.973 8.258,372.907 8.333,372.732 8.333 C 372.156 8.333,370.318 8.707,370.415 8.804 C 370.498 8.887,367.871 9.492,367.216 9.541 C 367.105 9.549,367.053 9.618,367.101 9.694 C 367.148 9.771,367.088 9.839,366.968 9.846 C 366.848 9.853,366.637 9.883,366.500 9.914 C 365.749 10.078,365.180 10.184,364.583 10.272 C 364.217 10.326,363.842 10.426,363.750 10.495 C 363.578 10.624,362.845 10.798,361.833 10.949 C 361.512 10.997,361.117 11.106,360.955 11.192 C 360.793 11.278,360.592 11.307,360.508 11.255 C 360.425 11.203,360.313 11.231,360.261 11.316 C 360.208 11.401,359.847 11.524,359.457 11.588 C 359.068 11.652,358.676 11.750,358.585 11.804 C 358.494 11.858,358.183 11.922,357.893 11.946 C 357.180 12.004,356.932 12.063,356.831 12.196 C 356.784 12.258,356.082 12.424,355.271 12.566 C 354.460 12.707,353.678 12.919,353.533 13.037 C 353.331 13.200,353.298 13.202,353.395 13.042 C 353.530 12.817,353.302 12.753,353.098 12.958 C 352.959 13.099,350.428 13.674,349.924 13.679 C 349.745 13.681,349.502 13.762,349.384 13.860 C 349.266 13.958,348.963 14.057,348.710 14.080 C 348.457 14.103,347.875 14.185,347.417 14.261 C 346.958 14.337,346.522 14.383,346.446 14.362 C 346.370 14.342,346.356 14.402,346.414 14.496 C 346.472 14.590,346.421 14.667,346.302 14.668 C 346.087 14.669,343.100 15.105,342.647 15.201 C 342.520 15.228,342.379 15.299,342.333 15.358 C 342.246 15.471,341.733 15.564,340.127 15.757 C 339.601 15.820,339.200 15.919,339.236 15.977 C 339.272 16.036,339.065 16.075,338.776 16.065 C 338.487 16.055,338.212 16.096,338.167 16.157 C 338.070 16.284,336.090 16.675,335.550 16.673 C 335.348 16.672,335.142 16.739,335.091 16.820 C 335.041 16.902,334.849 16.929,334.666 16.881 C 334.482 16.833,334.238 16.868,334.124 16.958 C 333.909 17.127,333.143 17.270,331.526 17.443 C 331.008 17.498,330.564 17.591,330.541 17.650 C 330.517 17.708,330.236 17.743,329.916 17.728 C 329.597 17.713,329.370 17.758,329.414 17.829 C 329.457 17.899,328.667 18.051,327.659 18.168 C 326.650 18.284,325.791 18.434,325.749 18.501 C 325.708 18.569,325.443 18.597,325.162 18.564 C 324.854 18.528,324.690 18.570,324.751 18.669 C 324.811 18.766,324.574 18.842,324.177 18.854 C 323.804 18.866,323.444 18.889,323.375 18.906 C 322.973 19.004,321.841 19.173,321.387 19.202 C 321.095 19.221,320.900 19.307,320.954 19.394 C 321.013 19.489,320.834 19.508,320.502 19.442 C 320.200 19.382,319.869 19.399,319.768 19.480 C 319.620 19.598,316.736 20.021,315.882 20.049 C 315.772 20.053,315.713 20.106,315.751 20.168 C 315.789 20.230,314.942 20.377,313.869 20.494 C 312.795 20.611,311.621 20.769,311.259 20.843 C 310.897 20.918,310.541 20.942,310.467 20.896 C 310.394 20.851,310.333 20.878,310.333 20.957 C 310.333 21.035,309.527 21.192,308.542 21.304 C 306.961 21.485,305.807 21.626,305.000 21.739 C 304.862 21.758,304.637 21.820,304.500 21.876 C 304.249 21.978,303.207 22.113,301.500 22.262 C 300.996 22.306,300.321 22.390,300.000 22.450 C 299.679 22.509,299.229 22.564,299.000 22.573 C 298.771 22.581,298.505 22.639,298.409 22.700 C 298.313 22.761,297.600 22.859,296.825 22.917 C 296.051 22.976,295.267 23.070,295.083 23.126 C 294.900 23.183,294.577 23.209,294.366 23.185 C 294.155 23.160,293.859 23.240,293.709 23.362 C 293.476 23.551,293.458 23.546,293.583 23.333 C 293.699 23.137,293.679 23.120,293.490 23.252 C 293.358 23.345,292.987 23.420,292.667 23.419 C 292.346 23.418,292.046 23.465,292.000 23.524 C 291.954 23.583,290.794 23.722,289.423 23.833 C 288.051 23.944,286.751 24.103,286.534 24.185 C 286.317 24.268,286.072 24.294,285.989 24.243 C 285.907 24.193,285.695 24.229,285.517 24.324 C 285.280 24.451,285.175 24.442,285.124 24.290 C 285.072 24.136,284.995 24.131,284.819 24.270 C 284.689 24.372,283.983 24.507,283.250 24.569 C 281.895 24.683,281.142 24.756,279.500 24.932 C 278.996 24.986,278.246 25.058,277.833 25.092 C 277.421 25.126,276.521 25.226,275.833 25.316 C 274.694 25.464,272.028 25.691,271.000 25.728 C 270.771 25.736,270.546 25.789,270.500 25.846 C 270.427 25.936,262.815 26.533,261.387 26.561 C 261.096 26.567,260.894 26.630,260.939 26.702 C 260.983 26.774,260.696 26.834,260.302 26.835 C 259.448 26.837,254.474 27.117,252.583 27.270 C 251.850 27.329,250.784 27.379,250.214 27.381 C 249.645 27.383,249.218 27.448,249.266 27.526 C 249.314 27.603,248.805 27.671,248.135 27.677 C 247.465 27.683,246.669 27.712,246.367 27.742 C 246.065 27.772,244.527 27.846,242.950 27.908 C 241.373 27.969,239.483 28.061,238.750 28.111 C 238.017 28.162,236.835 28.201,236.123 28.198 C 235.348 28.194,234.869 28.255,234.927 28.350 C 235.052 28.553,234.620 28.468,234.471 28.261 C 234.403 28.166,234.272 28.175,234.138 28.285 C 234.001 28.396,232.207 28.510,229.417 28.585 C 226.942 28.652,224.467 28.727,223.917 28.752 C 223.367 28.778,221.440 28.822,219.636 28.850 C 217.832 28.878,216.393 28.961,216.438 29.034 C 216.548 29.212,216.307 29.198,216.008 29.008 C 215.875 28.924,215.689 28.903,215.594 28.961 C 215.500 29.020,213.337 29.056,210.789 29.041 C 208.241 29.027,206.189 29.069,206.230 29.135 C 206.271 29.201,206.030 29.235,205.694 29.212 C 203.612 29.066,199.632 29.016,199.917 29.139 C 200.121 29.228,199.075 29.284,197.214 29.284 C 195.212 29.284,194.213 29.227,194.281 29.116 C 194.351 29.004,193.506 28.987,191.734 29.065 C 190.276 29.129,189.008 29.172,188.917 29.160 C 188.825 29.149,186.529 29.119,183.815 29.094 C 181.101 29.069,178.789 28.992,178.676 28.922 C 178.563 28.853,178.387 28.879,178.285 28.981 C 178.055 29.212,177.777 29.226,177.917 29.000 C 178.063 28.764,177.777 28.793,177.509 29.042 C 177.385 29.156,177.330 29.168,177.386 29.067 C 177.458 28.939,176.641 28.874,174.619 28.849 C 173.041 28.830,171.188 28.787,170.500 28.754 C 169.813 28.722,167.262 28.645,164.833 28.584 C 162.404 28.523,160.345 28.404,160.258 28.320 C 160.171 28.236,160.021 28.168,159.925 28.169 C 159.829 28.171,159.862 28.252,160.000 28.350 C 160.192 28.488,160.153 28.501,159.833 28.407 C 159.604 28.340,158.592 28.264,157.583 28.238 C 156.575 28.213,155.750 28.180,155.750 28.165 C 155.750 28.103,154.513 28.031,149.958 27.825 C 147.323 27.706,145.167 27.546,145.167 27.471 C 145.167 27.395,145.087 27.333,144.990 27.333 C 144.893 27.333,144.865 27.416,144.927 27.517 C 145.006 27.645,144.947 27.652,144.728 27.540 C 144.557 27.452,144.079 27.376,143.667 27.372 C 143.254 27.368,142.467 27.324,141.917 27.275 C 141.367 27.226,139.267 27.093,137.250 26.980 C 135.068 26.857,133.534 26.701,133.461 26.595 C 133.384 26.482,133.337 26.509,133.333 26.667 C 133.329 26.868,133.301 26.873,133.187 26.693 C 133.085 26.533,132.735 26.486,131.954 26.526 C 131.355 26.558,130.899 26.527,130.942 26.458 C 130.985 26.390,130.415 26.324,129.677 26.312 C 128.938 26.301,128.277 26.277,128.208 26.259 C 128.140 26.241,127.091 26.165,125.878 26.092 C 124.665 26.018,123.705 25.906,123.745 25.842 C 123.784 25.778,123.333 25.732,122.741 25.738 C 122.150 25.745,121.667 25.695,121.667 25.629 C 121.667 25.562,121.423 25.520,121.125 25.536 C 120.827 25.551,120.133 25.512,119.583 25.448 C 119.033 25.384,118.265 25.317,117.875 25.300 C 117.485 25.282,117.167 25.211,117.167 25.142 C 117.167 25.072,116.848 25.024,116.458 25.034 C 116.069 25.044,115.450 25.006,115.083 24.949 C 114.717 24.893,113.367 24.762,112.083 24.659 C 110.800 24.556,109.675 24.412,109.583 24.339 C 109.492 24.266,109.117 24.220,108.750 24.236 C 108.383 24.253,107.971 24.216,107.833 24.154 C 107.696 24.092,106.946 23.994,106.167 23.938 C 103.969 23.779,102.773 23.650,102.500 23.542 C 102.362 23.488,101.875 23.419,101.417 23.388 C 100.958 23.358,100.208 23.266,99.750 23.184 C 99.292 23.103,98.292 22.983,97.529 22.918 C 96.018 22.790,95.872 22.768,95.500 22.613 C 95.362 22.556,94.875 22.473,94.417 22.428 C 91.120 22.103,89.667 21.918,89.667 21.823 C 89.667 21.763,89.336 21.723,88.931 21.734 C 88.527 21.745,88.225 21.708,88.260 21.651 C 88.294 21.595,87.317 21.449,86.087 21.328 C 84.857 21.206,83.881 21.058,83.918 20.998 C 83.955 20.938,83.895 20.885,83.784 20.881 C 83.222 20.860,81.467 20.653,80.583 20.504 C 80.033 20.411,79.302 20.335,78.958 20.334 C 78.615 20.334,78.333 20.269,78.333 20.191 C 78.333 20.113,77.527 19.954,76.542 19.839 C 75.556 19.724,74.663 19.559,74.558 19.474 C 74.452 19.389,74.171 19.368,73.933 19.428 C 73.673 19.493,73.500 19.466,73.500 19.362 C 73.500 19.266,73.369 19.196,73.208 19.207 C 72.828 19.232,70.157 18.836,69.833 18.707 C 69.696 18.652,69.471 18.590,69.333 18.569 C 69.196 18.548,68.183 18.399,67.083 18.238 C 65.983 18.077,65.046 17.890,65.000 17.823 C 64.954 17.755,64.673 17.721,64.375 17.746 C 64.077 17.772,63.833 17.721,63.833 17.634 C 63.833 17.546,63.627 17.497,63.375 17.523 C 63.123 17.549,62.842 17.525,62.750 17.469 C 62.658 17.413,62.133 17.312,61.583 17.246 C 61.033 17.180,60.508 17.068,60.417 16.998 C 60.325 16.927,60.063 16.885,59.833 16.904 C 59.604 16.922,59.342 16.897,59.250 16.848 C 59.027 16.729,58.805 16.684,57.282 16.446 C 56.566 16.334,56.027 16.195,56.085 16.137 C 56.143 16.079,55.960 16.047,55.679 16.067 C 55.397 16.086,55.167 16.047,55.167 15.978 C 55.167 15.910,55.035 15.858,54.875 15.862 C 54.715 15.867,54.283 15.826,53.917 15.772 C 53.550 15.717,52.932 15.626,52.543 15.568 C 52.155 15.510,51.874 15.403,51.919 15.330 C 51.964 15.257,51.850 15.237,51.666 15.285 C 51.482 15.333,51.238 15.297,51.124 15.204 C 51.010 15.112,50.225 14.943,49.379 14.828 C 48.534 14.714,47.874 14.568,47.914 14.505 C 47.953 14.441,47.895 14.383,47.784 14.375 C 46.875 14.312,44.833 13.902,44.833 13.781 C 44.833 13.698,44.653 13.676,44.434 13.731 C 44.210 13.787,43.824 13.722,43.559 13.583 C 43.297 13.447,42.821 13.334,42.500 13.333 C 42.179 13.332,41.714 13.225,41.466 13.096 C 41.218 12.967,40.806 12.885,40.549 12.914 C 40.293 12.943,39.993 12.893,39.882 12.802 C 39.772 12.712,39.603 12.686,39.507 12.745 C 39.412 12.805,39.333 12.779,39.333 12.688 C 39.333 12.598,38.921 12.472,38.417 12.409 C 37.912 12.346,37.500 12.233,37.500 12.157 C 37.500 12.081,37.367 12.045,37.204 12.076 C 37.042 12.107,36.617 12.032,36.259 11.910 C 35.902 11.787,35.304 11.636,34.930 11.574 C 34.556 11.513,34.142 11.377,34.010 11.273 C 33.817 11.121,33.798 11.133,33.917 11.333 C 34.041 11.544,34.022 11.549,33.800 11.369 C 33.654 11.252,33.321 11.118,33.059 11.073 C 31.095 10.734,30.327 10.562,30.410 10.479 C 30.503 10.386,28.918 10.049,27.583 9.878 C 27.217 9.831,26.874 9.725,26.821 9.642 C 26.721 9.485,26.520 9.431,24.958 9.142 C 24.431 9.044,24.000 8.897,24.000 8.816 C 24.000 8.734,23.921 8.667,23.823 8.667 C 23.726 8.667,23.698 8.749,23.761 8.851 C 23.823 8.952,23.696 8.920,23.479 8.780 C 23.261 8.639,22.783 8.472,22.417 8.407 C 22.050 8.343,21.657 8.216,21.544 8.126 C 21.430 8.036,21.224 8.006,21.085 8.059 C 20.947 8.113,20.833 8.084,20.833 7.995 C 20.833 7.906,20.777 7.847,20.708 7.865 C 20.431 7.934,19.061 7.620,18.732 7.412 C 18.538 7.290,18.238 7.211,18.065 7.238 C 17.892 7.264,17.709 7.224,17.660 7.148 C 17.610 7.072,17.272 6.964,16.910 6.908 C 16.547 6.853,16.058 6.713,15.823 6.599 C 15.589 6.484,15.236 6.402,15.039 6.417 C 14.843 6.431,14.717 6.386,14.761 6.316 C 14.804 6.246,14.275 6.095,13.586 5.979 C 12.897 5.863,12.333 5.719,12.333 5.659 C 12.333 5.599,11.770 5.417,11.081 5.255 C 10.392 5.093,9.789 4.897,9.742 4.821 C 9.695 4.744,9.546 4.723,9.411 4.775 C 9.277 4.827,9.167 4.793,9.167 4.700 C 9.167 4.606,8.644 4.437,8.006 4.323 C 7.315 4.199,6.887 4.048,6.949 3.948 C 7.012 3.847,6.911 3.818,6.693 3.875 C 6.495 3.926,6.298 3.910,6.254 3.839 C 6.177 3.716,5.662 3.576,4.599 3.390 C 4.333 3.343,4.016 3.206,3.895 3.085 C 3.774 2.965,3.298 2.814,2.838 2.751 C 2.304 2.677,2.040 2.570,2.111 2.456 C 2.181 2.343,2.119 2.316,1.944 2.383 C 1.791 2.442,1.667 2.425,1.667 2.347 C 1.667 2.217,1.336 2.117,0.417 1.970 C 0.084 1.917,0.083 2.022,0.041 49.958 L -0.001 98.000 200.000 98.000 L 400.000 98.000 400.000 49.000 C 400.000 9.902,399.958 0.004,399.792 0.018 C 399.677 0.027,399.358 0.113,399.083 0.207 " stroke="none" fill="#2c8cc4" fill-rule="evenodd"></path><path id="path1" d="M159.500 28.333 C 159.637 28.422,159.862 28.495,160.000 28.495 C 160.222 28.495,160.222 28.477,160.000 28.333 C 159.862 28.244,159.637 28.172,159.500 28.172 C 159.278 28.172,159.278 28.190,159.500 28.333 M215.776 28.958 C 215.733 29.027,215.878 29.094,216.098 29.107 C 216.318 29.120,216.456 29.064,216.406 28.982 C 216.294 28.801,215.882 28.786,215.776 28.958 M188.046 29.102 C 188.167 29.223,190.348 29.208,190.471 29.085 C 190.517 29.038,189.968 29.000,189.250 29.000 C 188.532 29.000,187.990 29.046,188.046 29.102 M203.683 29.072 C 203.812 29.201,206.304 29.253,206.224 29.125 C 206.182 29.056,205.576 29.000,204.879 29.000 C 204.182 29.000,203.643 29.032,203.683 29.072 " stroke="none" fill="#308cc4" fill-rule="evenodd"></path><path id="path2" d="M159.500 28.333 C 159.637 28.422,159.862 28.495,160.000 28.495 C 160.222 28.495,160.222 28.477,160.000 28.333 C 159.862 28.244,159.637 28.172,159.500 28.172 C 159.278 28.172,159.278 28.190,159.500 28.333 M215.776 28.958 C 215.733 29.027,215.878 29.094,216.098 29.107 C 216.318 29.120,216.456 29.064,216.406 28.982 C 216.294 28.801,215.882 28.786,215.776 28.958 M188.046 29.102 C 188.167 29.223,190.348 29.208,190.471 29.085 C 190.517 29.038,189.968 29.000,189.250 29.000 C 188.532 29.000,187.990 29.046,188.046 29.102 M203.683 29.072 C 203.812 29.201,206.304 29.253,206.224 29.125 C 206.182 29.056,205.576 29.000,204.879 29.000 C 204.182 29.000,203.643 29.032,203.683 29.072 " stroke="none" fill="#308cc4" fill-rule="evenodd"></path><path id="path3" d="M159.500 28.333 C 159.637 28.422,159.862 28.495,160.000 28.495 C 160.222 28.495,160.222 28.477,160.000 28.333 C 159.862 28.244,159.637 28.172,159.500 28.172 C 159.278 28.172,159.278 28.190,159.500 28.333 M215.776 28.958 C 215.733 29.027,215.878 29.094,216.098 29.107 C 216.318 29.120,216.456 29.064,216.406 28.982 C 216.294 28.801,215.882 28.786,215.776 28.958 M188.046 29.102 C 188.167 29.223,190.348 29.208,190.471 29.085 C 190.517 29.038,189.968 29.000,189.250 29.000 C 188.532 29.000,187.990 29.046,188.046 29.102 M203.683 29.072 C 203.812 29.201,206.304 29.253,206.224 29.125 C 206.182 29.056,205.576 29.000,204.879 29.000 C 204.182 29.000,203.643 29.032,203.683 29.072 " stroke="none" fill="#308cc4" fill-rule="evenodd"></path><path id="path4" d="M159.500 28.333 C 159.637 28.422,159.862 28.495,160.000 28.495 C 160.222 28.495,160.222 28.477,160.000 28.333 C 159.862 28.244,159.637 28.172,159.500 28.172 C 159.278 28.172,159.278 28.190,159.500 28.333 M215.776 28.958 C 215.733 29.027,215.878 29.094,216.098 29.107 C 216.318 29.120,216.456 29.064,216.406 28.982 C 216.294 28.801,215.882 28.786,215.776 28.958 M188.046 29.102 C 188.167 29.223,190.348 29.208,190.471 29.085 C 190.517 29.038,189.968 29.000,189.250 29.000 C 188.532 29.000,187.990 29.046,188.046 29.102 M203.683 29.072 C 203.812 29.201,206.304 29.253,206.224 29.125 C 206.182 29.056,205.576 29.000,204.879 29.000 C 204.182 29.000,203.643 29.032,203.683 29.072 " stroke="none" fill="#308cc4" fill-rule="evenodd"></path></g></svg>